<?xml version="1.0" encoding="UTF-8" standalone="no"?>
<!-- Created with Inkscape (http://www.inkscape.org/) -->

<svg
   width="500mm"
   height="500mm"
   viewBox="0 0 499.99996 500.00065"
   version="1.1"
   id="svg5"
   inkscape:version="1.1 (c68e22c387, 2021-05-23)"
   sodipodi:docname="aero logo without text - Copy (2).svg"
   xmlns:inkscape="http://www.inkscape.org/namespaces/inkscape"
   xmlns:sodipodi="http://sodipodi.sourceforge.net/DTD/sodipodi-0.dtd"
   xmlns="http://www.w3.org/2000/svg"
   xmlns:svg="http://www.w3.org/2000/svg">
  <sodipodi:namedview
     id="namedview7"
     pagecolor="#ffffff"
     bordercolor="#666666"
     borderopacity="1.0"
     inkscape:pageshadow="2"
     inkscape:pageopacity="0.0"
     inkscape:pagecheckerboard="0"
     inkscape:document-units="px"
     showgrid="false"
     units="mm"
     inkscape:zoom="0.11215817"
     inkscape:cx="396.7611"
     inkscape:cy="414.59306"
     inkscape:window-width="1366"
     inkscape:window-height="705"
     inkscape:window-x="-8"
     inkscape:window-y="-8"
     inkscape:window-maximized="1"
     inkscape:current-layer="layer1"
     width="430.86615px" />
  <defs
     id="defs2">
    <rect
       x="108.75403"
       y="144.44937"
       width="123.43249"
       height="30.024118"
       id="rect899" />
    <pattern
       inkscape:collect="always"
       patternUnits="userSpaceOnUse"
       width="10"
       height="10"
       patternTransform="translate(0,0) scale(10,10)"
       id="Polkadots-small"
       inkscape:stockid="Polka dots, small">
      <circle
         style="fill:black;stroke:none"
         cx="2.567"
         cy="0.810"
         r="0.05"
         id="circle10620" />
      <circle
         style="fill:black;stroke:none"
         cx="3.048"
         cy="2.33"
         r="0.05"
         id="circle10622" />
      <circle
         style="fill:black;stroke:none"
         cx="4.418"
         cy="2.415"
         r="0.05"
         id="circle10624" />
      <circle
         style="fill:black;stroke:none"
         cx="1.844"
         cy="3.029"
         r="0.05"
         id="circle10626" />
      <circle
         style="fill:black;stroke:none"
         cx="6.08"
         cy="1.363"
         r="0.05"
         id="circle10628" />
      <circle
         style="fill:black;stroke:none"
         cx="5.819"
         cy="4.413"
         r="0.05"
         id="circle10630" />
      <circle
         style="fill:black;stroke:none"
         cx="4.305"
         cy="4.048"
         r="0.05"
         id="circle10632" />
      <circle
         style="fill:black;stroke:none"
         cx="5.541"
         cy="3.045"
         r="0.05"
         id="circle10634" />
      <circle
         style="fill:black;stroke:none"
         cx="4.785"
         cy="5.527"
         r="0.05"
         id="circle10636" />
      <circle
         style="fill:black;stroke:none"
         cx="2.667"
         cy="5.184"
         r="0.05"
         id="circle10638" />
      <circle
         style="fill:black;stroke:none"
         cx="7.965"
         cy="1.448"
         r="0.05"
         id="circle10640" />
      <circle
         style="fill:black;stroke:none"
         cx="7.047"
         cy="5.049"
         r="0.05"
         id="circle10642" />
      <circle
         style="fill:black;stroke:none"
         cx="4.340"
         cy="0.895"
         r="0.05"
         id="circle10644" />
      <circle
         style="fill:black;stroke:none"
         cx="7.125"
         cy="0.340"
         r="0.05"
         id="circle10646" />
      <circle
         style="fill:black;stroke:none"
         cx="9.550"
         cy="1.049"
         r="0.05"
         id="circle10648" />
      <circle
         style="fill:black;stroke:none"
         cx="7.006"
         cy="2.689"
         r="0.05"
         id="circle10650" />
      <circle
         style="fill:black;stroke:none"
         cx="8.909"
         cy="2.689"
         r="0.05"
         id="circle10652" />
      <circle
         style="fill:black;stroke:none"
         cx="9.315"
         cy="4.407"
         r="0.05"
         id="circle10654" />
      <circle
         style="fill:black;stroke:none"
         cx="7.820"
         cy="3.870"
         r="0.05"
         id="circle10656" />
      <circle
         style="fill:black;stroke:none"
         cx="8.270"
         cy="5.948"
         r="0.05"
         id="circle10658" />
      <circle
         style="fill:black;stroke:none"
         cx="7.973"
         cy="7.428"
         r="0.05"
         id="circle10660" />
      <circle
         style="fill:black;stroke:none"
         cx="9.342"
         cy="8.072"
         r="0.05"
         id="circle10662" />
      <circle
         style="fill:black;stroke:none"
         cx="8.206"
         cy="9.315"
         r="0.05"
         id="circle10664" />
      <circle
         style="fill:black;stroke:none"
         cx="9.682"
         cy="9.475"
         r="0.05"
         id="circle10666" />
      <circle
         style="fill:black;stroke:none"
         cx="9.688"
         cy="6.186"
         r="0.05"
         id="circle10668" />
      <circle
         style="fill:black;stroke:none"
         cx="3.379"
         cy="6.296"
         r="0.05"
         id="circle10670" />
      <circle
         style="fill:black;stroke:none"
         cx="2.871"
         cy="8.204"
         r="0.05"
         id="circle10672" />
      <circle
         style="fill:black;stroke:none"
         cx="4.59"
         cy="8.719"
         r="0.05"
         id="circle10674" />
      <circle
         style="fill:black;stroke:none"
         cx="3.181"
         cy="9.671"
         r="0.05"
         id="circle10676" />
      <circle
         style="fill:black;stroke:none"
         cx="5.734"
         cy="7.315"
         r="0.05"
         id="circle10678" />
      <circle
         style="fill:black;stroke:none"
         cx="6.707"
         cy="6.513"
         r="0.05"
         id="circle10680" />
      <circle
         style="fill:black;stroke:none"
         cx="5.730"
         cy="9.670"
         r="0.05"
         id="circle10682" />
      <circle
         style="fill:black;stroke:none"
         cx="6.535"
         cy="8.373"
         r="0.05"
         id="circle10684" />
      <circle
         style="fill:black;stroke:none"
         cx="4.37"
         cy="7.154"
         r="0.05"
         id="circle10686" />
      <circle
         style="fill:black;stroke:none"
         cx="0.622"
         cy="7.25"
         r="0.05"
         id="circle10688" />
      <circle
         style="fill:black;stroke:none"
         cx="0.831"
         cy="5.679"
         r="0.05"
         id="circle10690" />
      <circle
         style="fill:black;stroke:none"
         cx="1.257"
         cy="8.519"
         r="0.05"
         id="circle10692" />
      <circle
         style="fill:black;stroke:none"
         cx="1.989"
         cy="6.877"
         r="0.05"
         id="circle10694" />
      <circle
         style="fill:black;stroke:none"
         cx="0.374"
         cy="3.181"
         r="0.05"
         id="circle10696" />
      <circle
         style="fill:black;stroke:none"
         cx="1.166"
         cy="1.664"
         r="0.05"
         id="circle10698" />
      <circle
         style="fill:black;stroke:none"
         cx="1.151"
         cy="0.093"
         r="0.05"
         id="circle10700" />
      <circle
         style="fill:black;stroke:none"
         cx="1.151"
         cy="10.093"
         r="0.05"
         id="circle10702" />
      <circle
         style="fill:black;stroke:none"
         cx="1.302"
         cy="4.451"
         r="0.05"
         id="circle10704" />
      <circle
         style="fill:black;stroke:none"
         cx="3.047"
         cy="3.763"
         r="0.05"
         id="circle10706" />
    </pattern>
    <rect
       x="108.75403"
       y="144.44937"
       width="123.43249"
       height="30.024118"
       id="rect899-3" />
  </defs>
  <g
     inkscape:label="Layer 1"
     inkscape:groupmode="layer"
     id="layer1">
    <g
       inkscape:label="Layer 1"
       id="layer1-1"
       transform="matrix(3.1642292,0,0,2.9187172,-289.70892,-22.443653)">
      <circle
         style="fill:#00000e;fill-opacity:1;stroke:url(#Polkadots-small);stroke-width:0.551127;stroke-miterlimit:4;stroke-dasharray:none;stroke-opacity:0.188755"
         id="path5852"
         cx="169.66994"
         cy="84.104942"
         r="76.4179" />
      <path
         id="circle6034"
         style="fill:#ffffff;stroke:#000000;stroke-width:0.396875"
         d="m 195.80778,56.202843 c 0,8.529827 -3.89302,14.494621 -10.04652,19.479098 -2.06554,1.673136 -15.00679,2.321594 -15.00679,2.321594 -7.57636,-1.495562 -15.45665,-0.637838 -18.55047,-3.086803 -5.67927,-4.495512 -8.83804,-10.901072 -8.83804,-18.713889 0,-14.481409 11.7395,-26.22091 26.22091,-26.220909 14.48141,-10e-7 26.22091,11.7395 26.22091,26.220909 z"
         sodipodi:nodetypes="sssssss" />
      <path
         id="ellipse6036"
         style="fill:#000000;fill-opacity:1;stroke:#000000;stroke-width:0.397404;stroke-opacity:1"
         d="m 186.543,55.202034 c 0,9.39639 -7.69196,15.008589 -17.18047,15.008588 -9.48851,-4e-6 -17.18046,-5.612202 -17.18046,-15.008588 0,-9.396386 7.69195,-17.013664 17.18046,-17.013668 9.48851,-1e-6 17.18047,7.617278 17.18047,17.013668 z"
         sodipodi:nodetypes="sssss" />
      <path
         style="fill:#b3b3b3;stroke:none;stroke-width:0.661458;stroke-linecap:butt;stroke-linejoin:miter;stroke-miterlimit:4;stroke-dasharray:none;stroke-opacity:1"
         d="m 150.42554,74.875245 c 0,0 -30.23953,-14.780233 5.14423,-49.692212 0,0 -27.59933,9.199777 -30.43003,28.307008 0,0 -3.10707,-5.253797 5.6614,-19.343123 0,0 -20.81963,14.771331 -12.8132,33.036003 0,0 -8.75704,-3.836416 -4.50362,-19.265476 0,0 -15.846056,23.518891 -0.7506,36.445942 0,0 -6.92223,-0.500402 -12.25985,-15.679263 0,0 -2.502006,27.188503 13.84445,32.859726 0,0 -7.33923,0.5004 -16.680056,-10.675241 0,0 6.505216,39.198151 41.700156,29.857321 l 10.50844,-6.00482 z"
         id="path6038"
         sodipodi:nodetypes="ccccccccccccc" />
      <path
         style="fill:#b3b3b3;stroke:none;stroke-width:0.661458;stroke-linecap:butt;stroke-linejoin:miter;stroke-miterlimit:4;stroke-dasharray:none;stroke-opacity:1"
         d="m 188.41519,75.406005 c 0,0 30.23953,-14.780233 -5.14423,-49.692212 0,0 27.59933,9.199777 30.43003,28.307008 0,0 3.10707,-5.253797 -5.6614,-19.343123 0,0 20.81963,14.771331 12.8132,33.036003 0,0 8.75704,-3.836416 4.50362,-19.265476 0,0 15.84606,23.518891 0.7506,36.445942 0,0 6.92223,-0.500402 12.25985,-15.679263 0,0 2.50201,27.188493 -13.84445,32.859716 0,0 7.33923,0.5004 16.68006,-10.675231 0,0 -6.50522,39.198141 -41.70016,29.857311 l -10.50844,-6.00482 z"
         id="path6040"
         sodipodi:nodetypes="ccccccccccccc" />
      <rect
         style="opacity:1;fill:#333333;fill-opacity:1;stroke:none;stroke-width:0.437861;stroke-miterlimit:4;stroke-dasharray:none;stroke-opacity:0.975904"
         id="rect6042"
         width="10.264017"
         height="2.345957"
         x="153.26631"
         y="66.8442" />
      <rect
         style="opacity:1;fill:#333333;fill-opacity:1;stroke:none;stroke-width:0.494952;stroke-miterlimit:4;stroke-dasharray:none;stroke-opacity:1"
         id="rect6044"
         width="10.440649"
         height="2.2014403"
         x="176.03593"
         y="66.833061" />
      <rect
         style="opacity:1;fill:#333333;fill-opacity:1;stroke:none;stroke-width:0.416457;stroke-miterlimit:4;stroke-dasharray:none;stroke-opacity:0.975904"
         id="rect6046"
         width="9.2715292"
         height="2.3494041"
         x="153.789"
         y="74.989838" />
      <rect
         style="opacity:1;fill:#333333;fill-opacity:1;stroke:none;stroke-width:0.416457;stroke-miterlimit:4;stroke-dasharray:none;stroke-opacity:0.975904"
         id="rect6048"
         width="9.2714224"
         height="2.3494041"
         x="176.36174"
         y="74.961075" />
      <path
         id="path6050"
         style="opacity:1;fill:#cccccc;stroke:none;stroke-width:0.584994;stroke-opacity:0.975904"
         d="m 149.01286,68.212486 c 0.0502,-6.918992 5.24813,-6.959221 5.33762,0 v 43.034574 h -5.33762 z"
         sodipodi:nodetypes="ccccc" />
      <path
         id="path6052"
         style="opacity:1;fill:#cccccc;fill-opacity:1;stroke:none;stroke-width:0.584994;stroke-opacity:0.975904"
         d="m 184.39344,68.155102 c 0.0502,-6.918992 5.24813,-6.959221 5.33762,0 v 43.034568 h -5.33762 z"
         sodipodi:nodetypes="ccccc" />
      <path
         style="fill:#e3dedb;fill-opacity:0.987952;stroke:none;stroke-width:0.211667;stroke-linecap:butt;stroke-linejoin:miter;stroke-miterlimit:4;stroke-dasharray:none;stroke-opacity:1"
         d="m 162.29269,91.879837 -0.11795,36.714493 h -23.58917 c 0,0 -0.94357,-9.82284 3.42043,-15.83808 6.49135,-8.94754 14.62528,-11.20485 20.28669,-20.876413 z"
         id="path6054"
         sodipodi:nodetypes="cccsc" />
      <path
         style="fill:#e3dedb;stroke:none;stroke-width:0.211667;stroke-linecap:butt;stroke-linejoin:miter;stroke-miterlimit:4;stroke-dasharray:none;stroke-opacity:1"
         d="m 177.89235,91.879837 0.11795,36.714493 h 23.58917 c 0,0 0.94357,-9.82284 -3.42043,-15.83808 -6.49135,-8.94754 -14.62528,-11.20485 -20.28669,-20.876413 z"
         id="path6056"
         sodipodi:nodetypes="cccsc" />
      <path
         id="path6058"
         style="opacity:1;fill:#e3dedb;stroke:none;stroke-width:0.588927;stroke-opacity:0.975904"
         d="m 160.84086,62.573933 c 0.10549,-8.242635 4.75008,-18.59134 9.18785,-18.572316 4.54371,0.01948 8.88151,10.598221 8.85564,18.572316 V 128.5822 h -18.04349 z"
         sodipodi:nodetypes="cscccc" />
      <path
         id="path6060"
         style="opacity:1;fill:#000000;fill-opacity:1;stroke:#000004;stroke-width:0.526627;stroke-opacity:1"
         d="m 160.83853,75.500338 c 0.10282,-6.459755 4.97605,-16.763688 9.2984,-16.889528 4.62807,-0.134742 8.58719,10.219937 8.56083,16.755251 l 0.16058,53.239649 h -17.9935 z"
         sodipodi:nodetypes="cccccc" />
      <path
         style="fill:#f9f9f9;stroke:none;stroke-width:0.264583px;stroke-linecap:butt;stroke-linejoin:miter;stroke-opacity:1"
         d="m 168.36174,117.08508 0.0834,23.85249 c 0,0 -18.51487,2.16841 -13.26065,-5.33762 6.43392,-9.19132 6.62824,-9.16391 6.62824,-9.16391 z"
         id="path6062"
         sodipodi:nodetypes="ccscc" />
      <path
         style="fill:#ffffff;stroke:none;stroke-width:0.264583px;stroke-linecap:butt;stroke-linejoin:miter;stroke-opacity:1"
         d="m 171.81483,117.11385 -0.0834,23.85249 c 0,0 18.51487,2.16841 13.26065,-5.33762 -6.43392,-9.19132 -6.62824,-9.16391 -6.62824,-9.16391 z"
         id="path6064"
         sodipodi:nodetypes="ccscc" />
      <circle
         style="opacity:1;fill:#ff1400;fill-opacity:1;stroke:none;stroke-width:0.710282;stroke-miterlimit:4;stroke-dasharray:none;stroke-opacity:0.975904"
         id="circle6066"
         cx="153.83618"
         cy="36.172874"
         r="3.6557248"
         inkscape:transform-center-y="0.5349858"
         inkscape:transform-center-x="-1.7140114e-06" />
      <path
         sodipodi:nodetypes="cssccsccc"
         id="path901"
         d="m 95.729751,103.26077 c 0,0 -21.288492,20.5446 23.594059,10.813 44.09373,-9.56053 82.63634,-28.727865 109.53734,-44.256599 23.95163,-13.826193 25.82225,-24.670378 7.74485,-22.149235 l 1.47025,2.918825 c 0,0 13.89305,-1.185489 -0.7367,8.724743 -17.0246,11.532492 -71.38498,40.982206 -123.97782,51.424906 0,0 -26.826536,5.59718 -16.440446,-3.61866 z"
         style="fill:#ff0900;fill-opacity:1;stroke:none;stroke-width:0.264583px;stroke-linecap:butt;stroke-linejoin:miter;stroke-opacity:1" />
      <path
         inkscape:transform-center-y="-0.028267616"
         inkscape:transform-center-x="0.16114095"
         d="m 129.62951,130.93709 -1.39493,-0.70549 -0.83971,1.3185 0.23989,-1.54467 -1.51344,-0.39117 1.54319,-0.24917 -0.0957,-1.56025 0.71385,1.39066 1.45433,-0.57311 -1.10201,1.10865 z"
         inkscape:randomized="0"
         inkscape:rounded="0"
         inkscape:flatsided="false"
         sodipodi:arg2="1.3030595"
         sodipodi:arg1="0.67474094"
         sodipodi:r2="0.54529804"
         sodipodi:r1="1.9711252"
         sodipodi:cy="129.70573"
         sodipodi:cx="128.09032"
         sodipodi:sides="5"
         id="path1861"
         style="fill:#ffffff;fill-rule:evenodd;stroke-width:0.197004"
         sodipodi:type="star" />
      <path
         sodipodi:type="star"
         style="fill:#ffffff;fill-rule:evenodd;stroke-width:0.197004"
         id="path1863"
         sodipodi:sides="5"
         sodipodi:cx="170.86542"
         sodipodi:cy="18.403723"
         sodipodi:r1="1.9711252"
         sodipodi:r2="0.54529804"
         sodipodi:arg1="0.67474094"
         sodipodi:arg2="1.3030595"
         inkscape:flatsided="false"
         inkscape:rounded="0"
         inkscape:randomized="0"
         d="m 172.40461,19.635075 -1.39493,-0.705482 -0.83971,1.318495 0.23989,-1.544665 -1.51344,-0.391172 1.54319,-0.249173 -0.0956,-1.560253 0.71385,1.390667 1.45433,-0.573117 -1.10201,1.108653 z"
         inkscape:transform-center-x="0.16114095"
         inkscape:transform-center-y="-0.028267616" />
      <path
         inkscape:transform-center-y="-0.028267616"
         inkscape:transform-center-x="0.16114095"
         d="m 193.59717,18.22041 -1.39493,-0.705482 -0.83971,1.318495 0.2399,-1.544665 -1.51345,-0.391172 1.5432,-0.249173 -0.0957,-1.560254 0.71385,1.390668 1.45433,-0.573118 -1.10201,1.108654 z"
         inkscape:randomized="0"
         inkscape:rounded="0"
         inkscape:flatsided="false"
         sodipodi:arg2="1.3030595"
         sodipodi:arg1="0.67474094"
         sodipodi:r2="0.54529804"
         sodipodi:r1="1.9711252"
         sodipodi:cy="16.989058"
         sodipodi:cx="192.05798"
         sodipodi:sides="5"
         id="path1865"
         style="fill:#ffffff;fill-rule:evenodd;stroke-width:0.197004"
         sodipodi:type="star" />
      <path
         sodipodi:type="star"
         style="fill:#ffffff;fill-rule:evenodd;stroke-width:0.197004"
         id="path1867"
         sodipodi:sides="5"
         sodipodi:cx="170.05064"
         sodipodi:cy="151.88589"
         sodipodi:r1="1.9711252"
         sodipodi:r2="0.54529804"
         sodipodi:arg1="0.67474094"
         sodipodi:arg2="1.3030595"
         inkscape:flatsided="false"
         inkscape:rounded="0"
         inkscape:randomized="0"
         d="m 171.58983,153.11725 -1.39493,-0.70549 -0.83971,1.3185 0.2399,-1.54466 -1.51345,-0.39118 1.5432,-0.24917 -0.0957,-1.56025 0.71386,1.39066 1.45433,-0.57311 -1.10202,1.10865 z"
         inkscape:transform-center-x="0.16114095"
         inkscape:transform-center-y="-0.028267616" />
      <path
         inkscape:transform-center-y="-0.028267616"
         inkscape:transform-center-x="0.16114095"
         d="m 208.87504,131.51275 -1.39494,-0.70548 -0.8397,1.3185 0.23989,-1.54467 -1.51345,-0.39117 1.5432,-0.24917 -0.0957,-1.56026 0.71385,1.39067 1.45433,-0.57312 -1.10201,1.10866 z"
         inkscape:randomized="0"
         inkscape:rounded="0"
         inkscape:flatsided="false"
         sodipodi:arg2="1.3030595"
         sodipodi:arg1="0.67474094"
         sodipodi:r2="0.54529804"
         sodipodi:r1="1.9711252"
         sodipodi:cy="130.2814"
         sodipodi:cx="207.33585"
         sodipodi:sides="5"
         id="path1869"
         style="fill:#ffffff;fill-rule:evenodd;stroke-width:0.197004"
         sodipodi:type="star" />
      <path
         sodipodi:type="star"
         style="fill:#ffffff;fill-rule:evenodd;stroke-width:0.197004"
         id="path1871"
         sodipodi:sides="5"
         sodipodi:cx="222.84525"
         sodipodi:cy="127.4548"
         sodipodi:r1="1.9711252"
         sodipodi:r2="0.54529804"
         sodipodi:arg1="0.67474094"
         sodipodi:arg2="1.3030595"
         inkscape:flatsided="false"
         inkscape:rounded="0"
         inkscape:randomized="0"
         d="m 224.38444,128.68616 -1.39494,-0.70549 -0.8397,1.3185 0.23989,-1.54467 -1.51345,-0.39117 1.5432,-0.24917 -0.0957,-1.56025 0.71386,1.39066 1.45433,-0.57311 -1.10201,1.10865 z"
         inkscape:transform-center-x="0.16114095"
         inkscape:transform-center-y="-0.028267616" />
      <path
         inkscape:transform-center-y="-0.028267616"
         inkscape:transform-center-x="0.16114095"
         d="m 206.15378,144.22737 -1.39493,-0.70548 -0.83971,1.31849 0.2399,-1.54466 -1.51345,-0.39117 1.5432,-0.24918 -0.0957,-1.56025 0.71385,1.39067 1.45433,-0.57312 -1.10201,1.10865 z"
         inkscape:randomized="0"
         inkscape:rounded="0"
         inkscape:flatsided="false"
         sodipodi:arg2="1.3030595"
         sodipodi:arg1="0.67474094"
         sodipodi:r2="0.54529804"
         sodipodi:r1="1.9711252"
         sodipodi:cy="142.99602"
         sodipodi:cx="204.61459"
         sodipodi:sides="5"
         id="path1873"
         style="fill:#ffffff;fill-rule:evenodd;stroke-width:0.197004"
         sodipodi:type="star" />
      <path
         sodipodi:type="star"
         style="fill:#ffffff;fill-rule:evenodd;stroke-width:0.197004"
         id="path1875"
         sodipodi:sides="5"
         sodipodi:cx="186.39532"
         sodipodi:cy="150.80434"
         sodipodi:r1="1.9711252"
         sodipodi:r2="0.54529804"
         sodipodi:arg1="0.67474094"
         sodipodi:arg2="1.3030595"
         inkscape:flatsided="false"
         inkscape:rounded="0"
         inkscape:randomized="0"
         d="m 187.93451,152.03569 -1.39493,-0.70548 -0.8397,1.31849 0.23989,-1.54466 -1.51345,-0.39117 1.5432,-0.24918 -0.0957,-1.56025 0.71386,1.39067 1.45433,-0.57312 -1.10201,1.10865 z"
         inkscape:transform-center-x="0.16114095"
         inkscape:transform-center-y="-0.028267616" />
      <path
         inkscape:transform-center-y="-0.028267616"
         inkscape:transform-center-x="0.16114095"
         d="m 194.04239,138.23952 -1.39493,-0.70549 -0.83971,1.3185 0.2399,-1.54467 -1.51345,-0.39117 1.5432,-0.24917 -0.0957,-1.56025 0.71386,1.39066 1.45433,-0.57311 -1.10202,1.10865 z"
         inkscape:randomized="0"
         inkscape:rounded="0"
         inkscape:flatsided="false"
         sodipodi:arg2="1.3030595"
         sodipodi:arg1="0.67474094"
         sodipodi:r2="0.54529804"
         sodipodi:r1="1.9711252"
         sodipodi:cy="137.00816"
         sodipodi:cx="192.5032"
         sodipodi:sides="5"
         id="path1877"
         style="fill:#ffffff;fill-rule:evenodd;stroke-width:0.197004"
         sodipodi:type="star" />
      <path
         sodipodi:type="star"
         style="fill:#ffffff;fill-rule:evenodd;stroke-width:0.197004"
         id="path1879"
         sodipodi:sides="5"
         sodipodi:cx="149.0892"
         sodipodi:cy="149.81625"
         sodipodi:r1="1.9711252"
         sodipodi:r2="0.54529804"
         sodipodi:arg1="0.67474094"
         sodipodi:arg2="1.3030595"
         inkscape:flatsided="false"
         inkscape:rounded="0"
         inkscape:randomized="0"
         d="m 150.62839,151.04761 -1.39493,-0.70549 -0.83971,1.3185 0.2399,-1.54467 -1.51345,-0.39117 1.5432,-0.24917 -0.0957,-1.56025 0.71385,1.39066 1.45433,-0.57311 -1.10201,1.10865 z"
         inkscape:transform-center-x="0.16114095"
         inkscape:transform-center-y="-0.028267616" />
      <path
         inkscape:transform-center-y="-0.028267616"
         inkscape:transform-center-x="0.16114095"
         d="m 133.98524,143.23311 -1.39494,-0.70549 -0.8397,1.3185 0.23989,-1.54466 -1.51345,-0.39118 1.5432,-0.24917 -0.0957,-1.56025 0.71386,1.39066 1.45433,-0.57311 -1.10201,1.10865 z"
         inkscape:randomized="0"
         inkscape:rounded="0"
         inkscape:flatsided="false"
         sodipodi:arg2="1.3030595"
         sodipodi:arg1="0.67474094"
         sodipodi:r2="0.54529804"
         sodipodi:r1="1.9711252"
         sodipodi:cy="142.00175"
         sodipodi:cx="132.44604"
         sodipodi:sides="5"
         id="path1881"
         style="fill:#ffffff;fill-rule:evenodd;stroke-width:0.197004"
         sodipodi:type="star" />
      <path
         sodipodi:type="star"
         style="fill:#ffffff;fill-rule:evenodd;stroke-width:0.197004"
         id="path1883"
         sodipodi:sides="5"
         sodipodi:cx="113.57228"
         sodipodi:cy="124.35006"
         sodipodi:r1="1.9711252"
         sodipodi:r2="0.54529804"
         sodipodi:arg1="0.67474094"
         sodipodi:arg2="1.3030595"
         inkscape:flatsided="false"
         inkscape:rounded="0"
         inkscape:randomized="0"
         d="m 115.11147,125.58141 -1.39493,-0.70548 -0.83971,1.3185 0.2399,-1.54467 -1.51345,-0.39117 1.54319,-0.24918 -0.0956,-1.56025 0.71385,1.39067 1.45433,-0.57312 -1.10201,1.10865 z"
         inkscape:transform-center-x="0.16114095"
         inkscape:transform-center-y="-0.028267616" />
      <path
         inkscape:transform-center-y="-0.028267616"
         inkscape:transform-center-x="0.16114095"
         d="m 146.07097,138.51478 -1.39493,-0.70548 -0.83971,1.3185 0.2399,-1.54467 -1.51345,-0.39117 1.5432,-0.24917 -0.0957,-1.56026 0.71386,1.39067 1.45433,-0.57312 -1.10202,1.10866 z"
         inkscape:randomized="0"
         inkscape:rounded="0"
         inkscape:flatsided="false"
         sodipodi:arg2="1.3030595"
         sodipodi:arg1="0.67474094"
         sodipodi:r2="0.54529804"
         sodipodi:r1="1.9711252"
         sodipodi:cy="137.28343"
         sodipodi:cx="144.53178"
         sodipodi:sides="5"
         id="path1885"
         style="fill:#ffffff;fill-rule:evenodd;stroke-width:0.197004"
         sodipodi:type="star" />
      <path
         sodipodi:type="star"
         style="fill:#ffffff;fill-rule:evenodd;stroke-width:0.197004"
         id="path1891"
         sodipodi:sides="5"
         sodipodi:cx="150.78345"
         sodipodi:cy="16.989058"
         sodipodi:r1="1.9711252"
         sodipodi:r2="0.54529804"
         sodipodi:arg1="0.67474094"
         sodipodi:arg2="1.3030595"
         inkscape:flatsided="false"
         inkscape:rounded="0"
         inkscape:randomized="0"
         d="m 152.32264,18.22041 -1.39493,-0.705482 -0.83971,1.318495 0.23989,-1.544665 -1.51344,-0.391172 1.54319,-0.249173 -0.0957,-1.560254 0.71385,1.390668 1.45433,-0.573118 -1.10201,1.108654 z"
         inkscape:transform-center-x="0.16114095"
         inkscape:transform-center-y="-0.028267616" />
      <path
         inkscape:transform-center-y="-0.028267616"
         inkscape:transform-center-x="0.16114095"
         d="m 138.56444,26.687083 -1.39493,-0.705482 -0.83971,1.318495 0.2399,-1.544665 -1.51345,-0.391172 1.5432,-0.249174 -0.0957,-1.560253 0.71385,1.390668 1.45433,-0.573118 -1.10201,1.108653 z"
         inkscape:randomized="0"
         inkscape:rounded="0"
         inkscape:flatsided="false"
         sodipodi:arg2="1.3030595"
         sodipodi:arg1="0.67474094"
         sodipodi:r2="0.54529804"
         sodipodi:r1="1.9711252"
         sodipodi:cy="25.45573"
         sodipodi:cx="137.02525"
         sodipodi:sides="5"
         id="path1893"
         style="fill:#ffffff;fill-rule:evenodd;stroke-width:0.197004"
         sodipodi:type="star" />
      <path
         sodipodi:type="star"
         style="fill:#ffffff;fill-rule:evenodd;stroke-width:0.197004"
         id="path1895"
         sodipodi:sides="5"
         sodipodi:cx="203.69952"
         sodipodi:cy="25.45573"
         sodipodi:r1="1.9711252"
         sodipodi:r2="0.54529804"
         sodipodi:arg1="0.67474094"
         sodipodi:arg2="1.3030595"
         inkscape:flatsided="false"
         inkscape:rounded="0"
         inkscape:randomized="0"
         d="m 205.23871,26.687083 -1.39493,-0.705482 -0.83971,1.318495 0.2399,-1.544665 -1.51345,-0.391172 1.5432,-0.249174 -0.0957,-1.560253 0.71386,1.390668 1.45433,-0.573118 -1.10202,1.108653 z"
         inkscape:transform-center-x="0.16114095"
         inkscape:transform-center-y="-0.028267616" />
      <path
         inkscape:transform-center-y="-0.028267616"
         inkscape:transform-center-x="0.16114095"
         d="m 221.11355,35.153754 -1.39494,-0.705482 -0.8397,1.318495 0.23989,-1.544665 -1.51345,-0.391172 1.5432,-0.249174 -0.0957,-1.560253 0.71385,1.390668 1.45433,-0.573118 -1.10201,1.108653 z"
         inkscape:randomized="0"
         inkscape:rounded="0"
         inkscape:flatsided="false"
         sodipodi:arg2="1.3030595"
         sodipodi:arg1="0.67474094"
         sodipodi:r2="0.54529804"
         sodipodi:r1="1.9711252"
         sodipodi:cy="33.922401"
         sodipodi:cx="219.57436"
         sodipodi:sides="5"
         id="path1897"
         style="fill:#ffffff;fill-rule:evenodd;stroke-width:0.197004"
         sodipodi:type="star" />
      <path
         sodipodi:type="star"
         style="fill:#ffffff;fill-rule:evenodd;stroke-width:0.197004"
         id="path1899"
         sodipodi:sides="5"
         sodipodi:cx="120.09206"
         sodipodi:cy="33.922401"
         sodipodi:r1="1.9711252"
         sodipodi:r2="0.54529804"
         sodipodi:arg1="0.67474094"
         sodipodi:arg2="1.3030595"
         inkscape:flatsided="false"
         inkscape:rounded="0"
         inkscape:randomized="0"
         d="m 121.63125,35.153754 -1.39494,-0.705482 -0.8397,1.318495 0.23989,-1.544665 -1.51345,-0.391172 1.5432,-0.249174 -0.0957,-1.560253 0.71385,1.390668 1.45433,-0.573118 -1.10201,1.108653 z"
         inkscape:transform-center-x="0.16114095"
         inkscape:transform-center-y="-0.028267616" />
      <text
         xml:space="preserve"
         id="text897"
         style="font-style:normal;font-variant:normal;font-weight:normal;font-stretch:normal;font-size:10.5833px;line-height:1.25;font-family:'agency fb';-inkscape-font-specification:'agency fb';white-space:pre;shape-inside:url(#rect899-3);fill:#ff0017;fill-opacity:1;stroke:#030000;stroke-width:0.338728;stroke-miterlimit:4;stroke-dasharray:none;stroke-opacity:0.975904"
         transform="matrix(2.0162279,0,0,1.891308,-92.164537,-113.38764)"><tspan
           x="108.75391"
           y="154.33618"
           id="tspan439">AERONAUTICA</tspan></text>
    </g>
  </g>
</svg>
